<?xml version="1.0" standalone="no"?>
<!DOCTYPE svg PUBLIC "-//W3C//DTD SVG 20010904//EN"
 "http://www.w3.org/TR/2001/REC-SVG-20010904/DTD/svg10.dtd">
<svg version="1.0" xmlns="http://www.w3.org/2000/svg"
 width="225.000000pt" height="225.000000pt" viewBox="0 0 225.000000 225.000000"
 preserveAspectRatio="xMidYMid meet">

<g transform="translate(0.000000,225.000000) scale(0.100000,-0.100000)"
fill="#000000" stroke="none">
<path d="M921 2140 c-394 -86 -695 -371 -798 -755 -23 -89 -26 -118 -26 -260
-1 -143 2 -171 27 -260 83 -307 295 -557 581 -685 148 -66 371 -101 527 -82
466 58 814 376 908 832 41 197 13 437 -74 624 -131 284 -381 494 -682 572
-140 37 -331 42 -463 14z m306 -31 c243 -27 436 -121 604 -295 212 -221 302
-475 277 -784 -33 -420 -356 -782 -782 -877 -116 -26 -318 -21 -438 10 -294
77 -533 272 -658 539 -152 325 -119 706 85 993 50 70 169 190 240 241 113 82
299 153 450 173 99 12 115 12 222 0z"/>
<path d="M1051 1654 c-98 -26 -153 -74 -197 -169 -29 -60 -32 -149 -8 -218 17
-50 92 -142 124 -152 24 -8 26 -25 4 -25 -33 0 -157 -75 -208 -126 -85 -85
-146 -221 -146 -325 0 -85 34 -74 44 14 30 242 224 417 461 417 229 0 423
-169 458 -401 10 -70 21 -94 39 -83 4 3 8 27 8 53 0 157 -120 340 -273 416
-38 19 -76 35 -83 35 -8 0 -14 5 -14 10 0 6 5 10 10 10 21 0 96 80 120 127 21
40 25 62 25 133 0 76 -3 91 -30 139 -67 121 -205 181 -334 145z m208 -74 c134
-92 159 -257 55 -378 -125 -147 -366 -98 -428 86 -27 79 -17 148 32 220 56 83
121 114 225 108 56 -3 76 -9 116 -36z"/>
</g>
</svg>
