<svg version="1.1" id="Layer_1" xmlns="http://www.w3.org/2000/svg" xmlns:xlink="http://www.w3.org/1999/xlink" x="0px" y="0px"
	 width="100%" viewBox="0 0 1024 1024" enable-background="new 0 0 1024 1024" xml:space="preserve">
<path fill="#FBF8F5" opacity="1.000000" stroke="none" 
	d="
M447.000000,1025.000000 
	C298.000000,1025.000000 149.500000,1025.000000 1.000000,1025.000000 
	C1.000000,683.666687 1.000000,342.333344 1.000000,1.000000 
	C342.333344,1.000000 683.666687,1.000000 1025.000000,1.000000 
	C1025.000000,342.333344 1025.000000,683.666687 1025.000000,1025.000000 
	C832.500000,1025.000000 640.000000,1025.000000 447.000000,1025.000000 
M604.773987,470.093719 
	C604.917175,469.762421 605.060364,469.431122 605.104492,469.082367 
	C605.104492,469.082367 605.149292,469.172363 605.726685,468.834503 
	C605.529663,466.838043 605.332642,464.841553 605.036438,462.997467 
	C605.036438,462.997467 605.160156,462.864166 604.933655,462.332520 
	C604.440308,462.053253 603.946960,461.774017 603.250793,461.484406 
	C603.250793,461.484406 603.151489,461.661652 602.558594,461.044495 
	C592.568237,460.956543 582.577881,460.798370 572.587463,460.792542 
	C524.101074,460.764343 475.614655,460.746582 427.128571,460.866180 
	C424.738159,460.872070 422.350983,462.202423 419.332031,463.398956 
	C417.338623,467.482239 420.122314,469.912354 422.482391,472.482971 
	C432.023376,482.875183 441.758575,493.098236 451.015076,503.737885 
	C454.612549,507.872955 457.132355,512.945557 459.581573,517.120972 
	C447.951233,509.755859 436.706543,501.674957 424.617401,495.161407 
	C389.979614,476.498932 352.936584,463.375244 316.262085,449.451874 
	C307.566223,446.150513 305.124603,447.935303 305.119873,457.329315 
	C305.100861,494.992279 305.096954,532.655212 305.093048,570.318176 
	C305.089355,605.814697 305.132935,641.311340 305.046783,676.807617 
	C305.034698,681.776855 306.620483,684.877441 311.751129,686.334045 
	C316.983459,687.819458 321.987091,690.114380 327.083527,692.073975 
	C369.162140,708.253357 411.344086,724.293945 450.510773,746.910522 
	C466.282776,756.018005 481.612152,766.106628 496.153015,777.062622 
	C507.442993,785.569031 517.994385,786.679932 528.924011,777.446106 
	C530.194763,776.372498 531.504028,775.340149 532.839050,774.347290 
	C568.511353,747.815857 608.153992,728.665710 649.104736,711.991516 
	C670.704163,703.196655 692.414062,694.673096 714.695129,686.031250 
	C715.214355,685.758423 715.733582,685.485657 716.114197,685.182739 
	C716.114197,685.182739 716.143005,685.321594 716.749939,685.176575 
	C717.214050,684.805969 717.678162,684.435364 718.054688,684.051208 
	C718.054688,684.051208 718.062195,684.139526 718.771240,683.772583 
	C719.294861,681.237793 720.272644,678.703613 720.276001,676.168152 
	C720.372803,602.731506 720.379761,529.294800 720.340698,455.858154 
	C720.339783,454.161743 719.642700,452.465729 719.502930,450.759644 
	C719.502930,450.759644 719.537231,450.529388 719.301208,450.001801 
	C718.873535,449.653107 718.445801,449.304413 717.551270,448.313629 
	C714.829651,448.673523 711.917175,448.528412 709.416626,449.473297 
	C689.782837,456.892334 670.120850,464.256104 650.673340,472.144257 
	C620.073792,484.555817 590.141602,498.296356 563.871155,518.410522 
	C568.060181,512.648071 571.873901,506.560883 576.518433,501.192627 
	C585.414551,490.910431 594.782837,481.036804 604.269714,470.741119 
	C604.269714,470.741119 604.379700,470.353088 604.348694,470.255371 
	C604.348694,470.255371 604.283508,470.334473 604.773987,470.093719 
M579.664551,423.163757 
	C586.432861,417.539124 591.562866,410.670502 595.043701,402.605011 
	C603.359253,383.336884 603.646423,363.424103 598.226685,343.590118 
	C595.776367,334.622925 591.037170,326.260712 587.065857,317.750305 
	C586.430908,316.389618 584.369629,315.694550 582.967712,314.691772 
	C582.031311,316.159851 581.057007,317.605927 580.183960,319.110779 
	C579.953857,319.507507 580.069336,320.092346 579.970886,320.579651 
	C576.149048,339.503906 564.682800,352.294983 546.157349,358.309540 
	C546.130249,358.159790 546.036743,357.981934 546.086365,357.864655 
	C546.535950,356.802277 547.014465,355.752167 547.477234,354.695312 
	C555.938782,335.372345 558.855591,315.486176 555.132812,294.471008 
	C548.599365,257.588928 514.261292,231.874710 488.796814,225.573776 
	C487.509155,225.255173 485.477448,225.302887 484.762817,226.076569 
	C484.092926,226.801849 484.479828,228.779449 484.827301,230.093384 
	C485.201630,231.509048 486.116028,232.773941 486.716400,234.139114 
	C490.899689,243.651627 494.248138,253.278259 492.029053,263.977081 
	C490.226501,272.667572 486.185059,280.298218 480.515686,286.860809 
	C469.094086,300.081970 457.333282,313.015167 445.532532,325.902466 
	C428.732666,344.249054 419.719727,365.066711 423.947510,390.446564 
	C426.465820,405.564087 432.345795,418.575012 445.135010,427.927216 
	C466.412018,443.486084 490.219849,449.823669 516.349792,448.241119 
	C539.941833,446.812286 560.994568,438.950043 579.664551,423.163757 
z"/>
<path fill="#04589B" opacity="1.000000" stroke="none" 
	d="
M714.074097,686.027100 
	C692.414062,694.673096 670.704163,703.196655 649.104736,711.991516 
	C608.153992,728.665710 568.511353,747.815857 532.839050,774.347290 
	C531.504028,775.340149 530.194763,776.372498 528.924011,777.446106 
	C517.994385,786.679932 507.442993,785.569031 496.153015,777.062622 
	C481.612152,766.106628 466.282776,756.018005 450.510773,746.910522 
	C411.344086,724.293945 369.162140,708.253357 327.083527,692.073975 
	C321.987091,690.114380 316.983459,687.819458 311.751129,686.334045 
	C306.620483,684.877441 305.034698,681.776855 305.046783,676.807617 
	C305.132935,641.311340 305.089355,605.814697 305.093048,570.318176 
	C305.096954,532.655212 305.100861,494.992279 305.119873,457.329315 
	C305.124603,447.935303 307.566223,446.150513 316.262085,449.451874 
	C352.936584,463.375244 389.979614,476.498932 424.617401,495.161407 
	C436.706543,501.674957 447.951233,509.755859 459.874817,517.429565 
	C460.168091,517.738159 460.101105,517.875427 460.105164,518.233643 
	C461.138367,519.343201 462.167511,520.094543 463.155975,520.872070 
	C463.115295,520.898315 463.099426,520.802795 463.179871,521.064087 
	C463.551147,521.529297 463.841919,521.733154 464.084229,521.952698 
	C464.035736,521.968323 464.095917,521.886108 464.062561,522.271973 
	C466.109589,525.730408 468.189941,528.803040 470.216858,531.893738 
	C470.163422,531.911804 470.174896,531.799561 470.120422,532.224548 
	C470.059265,533.477539 469.931885,534.325439 470.064606,535.130432 
	C471.364868,543.016724 472.690826,550.898865 474.047485,558.775635 
	C474.691559,562.515320 475.417725,566.240784 476.068604,569.978516 
	C476.030487,569.984375 476.055725,569.911499 476.035522,570.267212 
	C476.727692,583.902405 477.420197,597.183044 478.215485,610.457581 
	C478.252228,611.070801 479.210022,611.628845 479.777039,612.384949 
	C479.815216,612.557312 479.587433,612.827087 479.355804,612.939514 
	C479.047760,613.152588 478.971344,613.253235 478.894958,613.353821 
	C479.121490,613.205261 479.348053,613.056702 479.682037,613.222168 
	C479.605469,613.659058 479.421509,613.781982 479.164978,614.369080 
	C480.047485,630.662720 480.973358,646.493958 481.964783,662.321167 
	C483.285492,683.404785 484.591766,704.489746 486.054749,725.563782 
	C486.403900,730.592896 487.101196,735.635071 488.182098,740.551758 
	C488.478973,741.902100 490.743622,742.819885 492.067810,743.951050 
	C492.030304,743.966064 492.040405,743.885864 492.155762,744.139465 
	C492.599060,744.547241 492.926971,744.701355 493.173615,744.865662 
	C493.092346,744.875793 493.115021,744.713623 493.228302,745.036011 
	C494.418121,745.982910 495.491669,747.142761 496.571655,747.148743 
	C506.940430,747.206421 517.315674,747.218872 527.674377,746.840393 
	C529.385620,746.777832 531.025391,744.759644 532.737183,743.710815 
	C532.776245,743.776428 532.623596,743.771484 532.931274,743.721680 
	C533.503113,743.140930 533.767151,742.609985 534.014526,742.049988 
	C533.997803,742.020996 534.064636,742.024414 534.432556,741.967468 
	C535.864258,739.151733 537.585876,736.460510 537.877319,733.622375 
	C539.101990,721.697693 539.862122,709.726013 540.864136,697.777588 
	C541.685791,687.979736 542.792847,678.202454 543.438538,668.394104 
	C544.174377,657.217041 544.320679,646.000000 545.117493,634.828491 
	C546.221191,619.353821 547.687805,603.905029 549.008667,588.445984 
	C549.641235,581.042236 550.477661,573.649841 550.864380,566.233704 
	C551.058228,562.515137 550.451416,558.754944 550.144531,554.667847 
	C550.174500,553.867249 550.266602,553.412476 550.704590,552.855408 
	C552.341919,546.131226 553.633362,539.509277 554.942261,532.925049 
	C554.959717,532.962708 554.876892,532.956177 555.202515,532.827026 
	C557.344116,529.438660 559.160095,526.179443 561.088257,522.607666 
	C562.159668,521.235168 563.118835,520.175110 564.077942,519.115112 
	C590.141602,498.296356 620.073792,484.555817 650.673340,472.144257 
	C670.120850,464.256104 689.782837,456.892334 709.416626,449.473297 
	C711.917175,448.528412 714.829651,448.673523 717.606750,448.824402 
	C718.287231,449.733215 718.912231,450.131317 719.537231,450.529388 
	C719.537231,450.529388 719.502930,450.759644 719.302612,451.248108 
	C719.076355,525.425476 719.064636,599.114319 718.983887,672.803162 
	C718.979736,676.582275 718.382996,680.360779 718.062195,684.139526 
	C718.062195,684.139526 718.054688,684.051208 717.764465,684.066406 
	C717.030518,684.494934 716.586792,684.908264 716.143005,685.321594 
	C716.143005,685.321594 716.114197,685.182739 715.887939,685.146667 
	C715.132507,685.416077 714.603333,685.721619 714.074097,686.027100 
z"/>
<path fill="#F37F09" opacity="1.000000" stroke="none" 
	d="
M579.401978,423.402527 
	C560.994568,438.950043 539.941833,446.812286 516.349792,448.241119 
	C490.219849,449.823669 466.412018,443.486084 445.135010,427.927216 
	C432.345795,418.575012 426.465820,405.564087 423.947510,390.446564 
	C419.719727,365.066711 428.732666,344.249054 445.532532,325.902466 
	C457.333282,313.015167 469.094086,300.081970 480.515686,286.860809 
	C486.185059,280.298218 490.226501,272.667572 492.029053,263.977081 
	C494.248138,253.278259 490.899689,243.651627 486.716400,234.139114 
	C486.116028,232.773941 485.201630,231.509048 484.827301,230.093384 
	C484.479828,228.779449 484.092926,226.801849 484.762817,226.076569 
	C485.477448,225.302887 487.509155,225.255173 488.796814,225.573776 
	C514.261292,231.874710 548.599365,257.588928 555.132812,294.471008 
	C558.855591,315.486176 555.938782,335.372345 547.477234,354.695312 
	C547.014465,355.752167 546.535950,356.802277 546.086365,357.864655 
	C546.036743,357.981934 546.130249,358.159790 546.157349,358.309540 
	C564.682800,352.294983 576.149048,339.503906 579.970886,320.579651 
	C580.069336,320.092346 579.953857,319.507507 580.183960,319.110779 
	C581.057007,317.605927 582.031311,316.159851 582.967712,314.691772 
	C584.369629,315.694550 586.430908,316.389618 587.065857,317.750305 
	C591.037170,326.260712 595.776367,334.622925 598.226685,343.590118 
	C603.646423,363.424103 603.359253,383.336884 595.043701,402.605011 
	C591.562866,410.670502 586.432861,417.539124 579.401978,423.402527 
z"/>
<path fill="#F38009" opacity="1.000000" stroke="none" 
	d="
M479.587433,612.827087 
	C479.587433,612.827087 479.815216,612.557312 479.832947,611.998596 
	C479.179718,601.735901 478.597961,592.024536 477.795868,582.331421 
	C477.451691,578.171936 476.649719,574.050293 476.055725,569.911499 
	C476.055725,569.911499 476.030487,569.984375 476.016327,569.574585 
	C475.722473,563.808960 475.921722,558.373352 475.046356,553.116699 
	C473.851105,545.939636 471.837616,538.898804 470.174896,531.799561 
	C470.174896,531.799561 470.163422,531.911804 470.157257,531.532898 
	C468.132721,528.064697 466.114319,524.975403 464.095917,521.886108 
	C464.095917,521.886108 464.035736,521.968323 463.995117,521.693359 
	C463.669464,521.213196 463.384460,521.007996 463.099426,520.802795 
	C463.099426,520.802795 463.115295,520.898315 463.051758,520.568970 
	C462.025848,519.451538 461.063477,518.663513 460.101105,517.875427 
	C460.101105,517.875427 460.168091,517.738159 460.155579,517.664673 
	C457.132355,512.945557 454.612549,507.872955 451.015076,503.737885 
	C441.758575,493.098236 432.023376,482.875183 422.482391,472.482971 
	C420.122314,469.912354 417.338623,467.482239 419.882935,463.363953 
	C422.811768,462.885986 425.189178,462.059326 427.567627,462.056244 
	C483.943512,461.983826 540.319519,462.003784 596.695496,461.985779 
	C598.847534,461.985107 600.999512,461.774445 603.151489,461.661682 
	C603.151489,461.661652 603.250793,461.484406 603.336792,461.829437 
	C604.001892,462.404358 604.580994,462.634247 605.160156,462.864166 
	C605.160156,462.864166 605.036438,462.997467 605.043640,463.372314 
	C605.083679,465.555573 605.116455,467.363983 605.149292,469.172363 
	C605.149292,469.172363 605.104492,469.082367 604.888062,469.196594 
	C604.542297,469.652008 604.412903,469.993256 604.283508,470.334473 
	C604.283508,470.334473 604.348694,470.255371 604.170166,470.251740 
	C603.869324,470.288147 603.747009,470.328217 603.624756,470.368256 
	C603.734924,470.576691 603.845093,470.785156 603.955200,470.993622 
	C594.782837,481.036804 585.414551,490.910431 576.518433,501.192627 
	C571.873901,506.560883 568.060181,512.648071 563.974548,518.762817 
	C563.118835,520.175110 562.159668,521.235168 560.783569,522.758789 
	C558.536682,526.467041 556.706787,529.711609 554.876953,532.956177 
	C554.876892,532.956177 554.959717,532.962708 554.664185,533.165894 
	C553.032043,539.898560 551.695374,546.428101 550.358643,552.957642 
	C550.266602,553.412476 550.174500,553.867249 550.071655,555.093506 
	C549.410583,563.810486 548.753906,571.755493 548.111206,579.701660 
	C545.744507,608.963013 543.297119,638.218140 541.048645,667.488586 
	C539.536987,687.166687 538.432861,706.876526 536.871399,726.550293 
	C536.458801,731.749817 535.027893,736.868591 534.064636,742.024414 
	C534.064636,742.024414 533.997803,742.020996 533.770874,742.195068 
	C533.237183,742.836609 532.930359,743.304077 532.623596,743.771484 
	C532.623596,743.771484 532.776245,743.776428 532.379639,743.851318 
	C530.114319,744.537170 528.237366,745.696777 526.378235,745.668884 
	C515.288208,745.502502 504.202301,745.062073 493.115021,744.713623 
	C493.115021,744.713623 493.092346,744.875793 493.064850,744.609131 
	C492.705048,744.190308 492.372711,744.038086 492.040405,743.885864 
	C492.040405,743.885864 492.030304,743.966064 491.895752,743.634766 
	C490.529999,740.155396 488.437286,737.070618 488.201141,733.849670 
	C485.906677,702.556702 483.985992,671.236511 481.810303,639.934448 
	C481.206024,631.240295 480.108673,622.580505 479.237518,613.904907 
	C479.421509,613.781982 479.605469,613.659058 479.681122,613.206055 
	C479.572784,612.875977 479.587433,612.827087 479.587433,612.827087 
z"/>
<path fill="#01267C" opacity="1.000000" stroke="none" 
	d="
M718.416748,683.956055 
	C718.382996,680.360779 718.979736,676.582275 718.983887,672.803162 
	C719.064636,599.114319 719.076355,525.425476 719.186279,451.253052 
	C719.642700,452.465729 720.339783,454.161743 720.340698,455.858154 
	C720.379761,529.294800 720.372803,602.731506 720.276001,676.168152 
	C720.272644,678.703613 719.294861,681.237793 718.416748,683.956055 
z"/>
<path fill="#F37F09" opacity="1.000000" stroke="none" 
	d="
M602.855042,461.353088 
	C600.999512,461.774445 598.847534,461.985107 596.695496,461.985779 
	C540.319519,462.003784 483.943512,461.983826 427.567627,462.056244 
	C425.189178,462.059326 422.811768,462.885986 420.198090,463.122498 
	C422.350983,462.202423 424.738159,460.872070 427.128571,460.866180 
	C475.614655,460.746582 524.101074,460.764343 572.587463,460.792542 
	C582.577881,460.798370 592.568237,460.956543 602.855042,461.353088 
z"/>
<path fill="#F37F09" opacity="1.000000" stroke="none" 
	d="
M605.437988,469.003418 
	C605.116455,467.363983 605.083679,465.555573 605.093262,463.296143 
	C605.332642,464.841553 605.529663,466.838043 605.437988,469.003418 
z"/>
<path fill="#01267C" opacity="1.000000" stroke="none" 
	d="
M714.384644,686.029175 
	C714.603333,685.721619 715.132507,685.416077 715.957275,685.161743 
	C715.733582,685.485657 715.214355,685.758423 714.384644,686.029175 
z"/>
<path fill="#01267C" opacity="1.000000" stroke="none" 
	d="
M719.419189,450.265594 
	C718.912231,450.131317 718.287231,449.733215 717.840210,449.145447 
	C718.445801,449.304413 718.873535,449.653107 719.419189,450.265594 
z"/>
<path fill="#F37F09" opacity="1.000000" stroke="none" 
	d="
M605.046875,462.598328 
	C604.580994,462.634247 604.001892,462.404358 603.438232,461.834625 
	C603.946960,461.774017 604.440308,462.053253 605.046875,462.598328 
z"/>
<path fill="#01267C" opacity="1.000000" stroke="none" 
	d="
M716.446472,685.249084 
	C716.586792,684.908264 717.030518,684.494934 717.808228,684.073181 
	C717.678162,684.435364 717.214050,684.805969 716.446472,685.249084 
z"/>
<path fill="#F37F09" opacity="1.000000" stroke="none" 
	d="
M604.112427,470.867371 
	C603.845093,470.785156 603.734924,470.576691 603.624756,470.368256 
	C603.747009,470.328217 603.869324,470.288147 604.185669,470.300598 
	C604.379700,470.353088 604.269714,470.741119 604.112427,470.867371 
z"/>
<path fill="#F37F09" opacity="1.000000" stroke="none" 
	d="
M604.528748,470.214111 
	C604.412903,469.993256 604.542297,469.652008 604.937622,469.205292 
	C605.060364,469.431122 604.917175,469.762421 604.528748,470.214111 
z"/>
<path fill="#0C4FB3" opacity="1.000000" stroke="none" 
	d="
M534.432556,741.967468 
	C535.027893,736.868591 536.458801,731.749817 536.871399,726.550293 
	C538.432861,706.876526 539.536987,687.166687 541.048645,667.488586 
	C543.297119,638.218140 545.744507,608.963013 548.111206,579.701660 
	C548.753906,571.755493 549.410583,563.810486 550.133789,555.439270 
	C550.451416,558.754944 551.058228,562.515137 550.864380,566.233704 
	C550.477661,573.649841 549.641235,581.042236 549.008667,588.445984 
	C547.687805,603.905029 546.221191,619.353821 545.117493,634.828491 
	C544.320679,646.000000 544.174377,657.217041 543.438538,668.394104 
	C542.792847,678.202454 541.685791,687.979736 540.864136,697.777588 
	C539.862122,709.726013 539.101990,721.697693 537.877319,733.622375 
	C537.585876,736.460510 535.864258,739.151733 534.432556,741.967468 
z"/>
<path fill="#0C4FB3" opacity="1.000000" stroke="none" 
	d="
M479.164978,614.369080 
	C480.108673,622.580505 481.206024,631.240295 481.810303,639.934448 
	C483.985992,671.236511 485.906677,702.556702 488.201141,733.849670 
	C488.437286,737.070618 490.529999,740.155396 491.933258,743.619751 
	C490.743622,742.819885 488.478973,741.902100 488.182098,740.551758 
	C487.101196,735.635071 486.403900,730.592896 486.054749,725.563782 
	C484.591766,704.489746 483.285492,683.404785 481.964783,662.321167 
	C480.973358,646.493958 480.047485,630.662720 479.164978,614.369080 
z"/>
<path fill="#0C4FB3" opacity="1.000000" stroke="none" 
	d="
M476.035522,570.267212 
	C476.649719,574.050293 477.451691,578.171936 477.795868,582.331421 
	C478.597961,592.024536 479.179718,601.735901 479.794769,611.826233 
	C479.210022,611.628845 478.252228,611.070801 478.215485,610.457581 
	C477.420197,597.183044 476.727692,583.902405 476.035522,570.267212 
z"/>
<path fill="#0C4FB3" opacity="1.000000" stroke="none" 
	d="
M470.120422,532.224548 
	C471.837616,538.898804 473.851105,545.939636 475.046356,553.116699 
	C475.921722,558.373352 475.722473,563.808960 476.054443,569.568726 
	C475.417725,566.240784 474.691559,562.515320 474.047485,558.775635 
	C472.690826,550.898865 471.364868,543.016724 470.064606,535.130432 
	C469.931885,534.325439 470.059265,533.477539 470.120422,532.224548 
z"/>
<path fill="#0C4FB3" opacity="1.000000" stroke="none" 
	d="
M493.228302,745.036011 
	C504.202301,745.062073 515.288208,745.502502 526.378235,745.668884 
	C528.237366,745.696777 530.114319,744.537170 532.340576,743.785767 
	C531.025391,744.759644 529.385620,746.777832 527.674377,746.840393 
	C517.315674,747.218872 506.940430,747.206421 496.571655,747.148743 
	C495.491669,747.142761 494.418121,745.982910 493.228302,745.036011 
z"/>
<path fill="#0C4FB3" opacity="1.000000" stroke="none" 
	d="
M550.704590,552.855408 
	C551.695374,546.428101 553.032043,539.898560 554.646729,533.128174 
	C553.633362,539.509277 552.341919,546.131226 550.704590,552.855408 
z"/>
<path fill="#0C4FB3" opacity="1.000000" stroke="none" 
	d="
M464.062561,522.271973 
	C466.114319,524.975403 468.132721,528.064697 470.210693,531.514832 
	C468.189941,528.803040 466.109589,525.730408 464.062561,522.271973 
z"/>
<path fill="#0C4FB3" opacity="1.000000" stroke="none" 
	d="
M555.202515,532.827026 
	C556.706787,529.711609 558.536682,526.467041 560.671265,523.071289 
	C559.160095,526.179443 557.344116,529.438660 555.202515,532.827026 
z"/>
<path fill="#0C4FB3" opacity="1.000000" stroke="none" 
	d="
M460.105164,518.233643 
	C461.063477,518.663513 462.025848,519.451538 463.092438,520.542725 
	C462.167511,520.094543 461.138367,519.343201 460.105164,518.233643 
z"/>
<path fill="#0C4FB3" opacity="1.000000" stroke="none" 
	d="
M532.931274,743.721680 
	C532.930359,743.304077 533.237183,742.836609 533.787598,742.224121 
	C533.767151,742.609985 533.503113,743.140930 532.931274,743.721680 
z"/>
<path fill="#0C4FB3" opacity="1.000000" stroke="none" 
	d="
M463.179871,521.064087 
	C463.384460,521.007996 463.669464,521.213196 464.043579,521.677734 
	C463.841919,521.733154 463.551147,521.529297 463.179871,521.064087 
z"/>
<path fill="#0C4FB3" opacity="1.000000" stroke="none" 
	d="
M479.355804,612.939514 
	C479.587433,612.827087 479.572784,612.875977 479.573700,612.892090 
	C479.348053,613.056702 479.121490,613.205261 478.894958,613.353821 
	C478.971344,613.253235 479.047760,613.152588 479.355804,612.939514 
z"/>
<path fill="#0C4FB3" opacity="1.000000" stroke="none" 
	d="
M492.155762,744.139465 
	C492.372711,744.038086 492.705048,744.190308 493.146118,744.598999 
	C492.926971,744.701355 492.599060,744.547241 492.155762,744.139465 
z"/>
</svg>